PathFileType	4	(X/Y/Z)	SUBJ51_3_walk_RCNL2025.trc
DataRate	CameraRate	NumFrames	NumMarkers	Units	OrigDataRate	OrigDataStartFrame	OrigNumFrames
100	100	4	25	mm	100	241	275
Frame#	Time	R_Shoulder			L_Shoulder			C7			J_Notch			R_Elbow			L_Elbow			R_Wrist			L_Wrist			R_Asis			L_Asis			Sacral			Thoracic			Sternum			R_Thigh_Lateral			R_Knee_Lateral			R_Shank_Lateral			R_Ankle_Lateral			R_Heel			R_Toe			L_Thigh_Lateral			L_Knee_Lateral			L_Shank_Lateral			L_Ankle_Lateral			L_Heel			L_Toe		
		X1	Y1	Z1	X2	Y2	Z2	X3	Y3	Z3	X4	Y4	Z4	X5	Y5	Z5	X6	Y6	Z6	X7	Y7	Z7	X8	Y8	Z8	X9	Y9	Z9	X10	Y10	Z10	X11	Y11	Z11	X12	Y12	Z12	X13	Y13	Z13	X14	Y14	Z14	X15	Y15	Z15	X16	Y16	Z16	X17	Y17	Z17	X18	Y18	Z18	X19	Y19	Z19	X20	Y20	Z20	X21	Y21	Z21	X22	Y22	Z22	X23	Y23	Z23	X24	Y24	Z24	X25	Y25	Z25
241	2.40000000	959.927795	1483.983887	419.375366	928.105469	1495.985596	-39.506798	870.334167	1607.685303	186.184326	1009.439819	1485.919189	184.023117	913.379089	1192.650879	535.061096	795.796021	1196.672729	-117.561707	1086.348877	985.104309	530.099518	782.666931	934.029999	-101.301090	990.253906	1043.043701	321.562225	1004.316406	1026.402954	87.935532	781.932556	1070.010864	180.245743	764.734924	1387.364014	190.334824	1058.319946	1259.168945	180.539551	890.335876	641.769470	379.646210	845.557922	523.274109	327.715485	784.944641	308.641968	378.412628	730.057800	84.852570	249.931625	677.296875	82.916039	192.980972	884.567322	47.582157	223.463791	1067.053223	665.693848	-46.980225	1091.906738	553.136353	0.002878	1061.952148	366.366760	-43.270580	1073.132935	97.397682	53.098911	1033.722290	100.652939	120.468155	1227.002197	73.095795	42.983391
242	2.41000000	974.595703	1482.477661	418.505066	941.421021	1493.834106	-40.328793	884.528015	1605.584961	185.474167	1023.642822	1483.690552	183.214264	930.739197	1192.257690	536.444702	804.100464	1196.250244	-116.637611	1108.360229	988.793488	531.282440	786.478210	934.275909	-99.689884	1002.477966	1040.689331	321.873535	1018.308105	1023.789124	87.803833	795.349548	1067.739258	178.719009	778.759766	1385.576782	189.576874	1072.042236	1256.547607	180.390396	897.818604	640.694458	379.913086	851.648376	522.442261	327.594727	788.089417	308.604706	378.239380	730.429199	85.450409	249.699982	677.794434	83.867508	192.732971	884.729126	47.403160	223.451065	1078.715454	661.742554	-45.473938	1105.789429	549.613281	1.247169	1086.166382	361.365967	-42.950317	1114.322998	92.959045	51.711292	1074.141724	93.446815	118.861015	1269.481567	78.486687	42.531750
243	2.42000000	989.274414	1480.789429	417.550446	954.945801	1491.517578	-41.199333	898.783020	1603.332031	184.657745	1037.905762	1481.287476	182.353989	947.928284	1191.727661	537.681335	812.699707	1195.759521	-115.823830	1129.931519	992.290710	532.342590	790.889709	934.462158	-98.148357	1014.787842	1038.416992	322.169373	1032.418579	1021.041504	87.783440	808.844421	1065.270752	177.249695	792.820862	1383.664795	188.699860	1085.785034	1253.790405	180.156052	905.669800	639.567322	380.138306	858.200073	521.538025	327.418945	791.514709	308.554688	377.964203	730.879700	86.126709	249.361633	678.383850	85.006676	192.386246	884.943481	47.229340	223.421127	1089.570190	657.207397	-44.162357	1119.212891	545.828430	2.442710	1109.966675	356.796906	-42.633415	1154.699585	89.897377	50.494198	1113.764771	87.678200	117.357956	1310.589966	84.825493	42.772671
244	2.43000000	1003.962585	1478.946045	416.520325	968.688477	1489.041504	-42.120125	913.100708	1600.959351	183.735931	1052.228638	1478.747437	181.448135	964.931641	1191.069580	538.768494	821.637207	1195.182617	-115.126480	1151.032104	995.584503	533.279633	795.865479	934.514374	-96.631077	1027.209473	1036.225708	322.465149	1046.658325	1018.192444	87.897522	822.435547	1062.679565	175.832794	806.925171	1381.649536	187.709106	1099.564331	1250.945801	179.852402	913.892395	638.383789	380.289337	865.168518	520.595947	327.201080	795.157471	308.546082	377.601257	731.416565	86.917931	248.925964	679.072449	86.367432	191.946716	885.188538	47.084167	223.386353	1099.791992	652.219910	-43.105846	1132.328735	541.907288	3.558787	1133.340454	352.706177	-42.301891	1193.903931	88.133469	49.571796	1152.273193	83.315346	116.113892	1350.039429	91.906227	43.661095
